<svg xmlns="http://www.w3.org/2000/svg" version="1.1" xmlns:xlink="http://www.w3.org/1999/xlink" xmlns:svgjs="http://svgjs.dev/svgjs" viewBox="0 0 800 800"><defs><linearGradient x1="50%" y1="0%" x2="50%" y2="100%" id="cccoil-grad"><stop stop-color="hsl(205, 69%, 60%)" stop-opacity="1" offset="0%"></stop><stop stop-color="hsl(205, 69%, 80%)" stop-opacity="1" offset="100%"></stop></linearGradient></defs><g stroke="url(#cccoil-grad)" fill="none" stroke-linecap="round"><circle r="396" cx="400" cy="400" stroke-width="4.5" stroke-dasharray="2488 2488" transform="rotate(360, 400, 400)" opacity="0.05"></circle><circle r="385" cx="400" cy="400" stroke-width="4.5" stroke-dasharray="2350 2419" transform="rotate(350, 400, 400)" opacity="0.08"></circle><circle r="374" cx="400" cy="400" stroke-width="4.5" stroke-dasharray="2216 2350" transform="rotate(339, 400, 400)" opacity="0.10"></circle><circle r="363" cx="400" cy="400" stroke-width="4.5" stroke-dasharray="2085 2281" transform="rotate(329, 400, 400)" opacity="0.13"></circle><circle r="352" cx="400" cy="400" stroke-width="4.5" stroke-dasharray="1959 2212" transform="rotate(319, 400, 400)" opacity="0.16"></circle><circle r="341" cx="400" cy="400" stroke-width="4.5" stroke-dasharray="1836 2143" transform="rotate(309, 400, 400)" opacity="0.19"></circle><circle r="330" cx="400" cy="400" stroke-width="4.5" stroke-dasharray="1718 2073" transform="rotate(298, 400, 400)" opacity="0.21"></circle><circle r="319" cx="400" cy="400" stroke-width="4.5" stroke-dasharray="1603 2004" transform="rotate(288, 400, 400)" opacity="0.24"></circle><circle r="308" cx="400" cy="400" stroke-width="4.5" stroke-dasharray="1493 1935" transform="rotate(278, 400, 400)" opacity="0.27"></circle><circle r="297" cx="400" cy="400" stroke-width="4.5" stroke-dasharray="1386 1866" transform="rotate(267, 400, 400)" opacity="0.29"></circle><circle r="286" cx="400" cy="400" stroke-width="4.5" stroke-dasharray="1284 1797" transform="rotate(257, 400, 400)" opacity="0.32"></circle><circle r="275" cx="400" cy="400" stroke-width="4.5" stroke-dasharray="1185 1728" transform="rotate(247, 400, 400)" opacity="0.35"></circle><circle r="264" cx="400" cy="400" stroke-width="4.5" stroke-dasharray="1090 1659" transform="rotate(237, 400, 400)" opacity="0.38"></circle><circle r="253" cx="400" cy="400" stroke-width="4.5" stroke-dasharray="999 1590" transform="rotate(226, 400, 400)" opacity="0.40"></circle><circle r="242" cx="400" cy="400" stroke-width="4.5" stroke-dasharray="912 1521" transform="rotate(216, 400, 400)" opacity="0.43"></circle><circle r="231" cx="400" cy="400" stroke-width="4.5" stroke-dasharray="829 1451" transform="rotate(206, 400, 400)" opacity="0.46"></circle><circle r="220" cx="400" cy="400" stroke-width="4.5" stroke-dasharray="750 1382" transform="rotate(195, 400, 400)" opacity="0.48"></circle><circle r="209" cx="400" cy="400" stroke-width="4.5" stroke-dasharray="675 1313" transform="rotate(185, 400, 400)" opacity="0.51"></circle><circle r="198" cx="400" cy="400" stroke-width="4.5" stroke-dasharray="604 1244" transform="rotate(175, 400, 400)" opacity="0.54"></circle><circle r="187" cx="400" cy="400" stroke-width="4.5" stroke-dasharray="537 1175" transform="rotate(165, 400, 400)" opacity="0.57"></circle><circle r="176" cx="400" cy="400" stroke-width="4.5" stroke-dasharray="474 1106" transform="rotate(154, 400, 400)" opacity="0.59"></circle><circle r="165" cx="400" cy="400" stroke-width="4.5" stroke-dasharray="415 1037" transform="rotate(144, 400, 400)" opacity="0.62"></circle><circle r="154" cx="400" cy="400" stroke-width="4.5" stroke-dasharray="359 968" transform="rotate(134, 400, 400)" opacity="0.65"></circle><circle r="143" cx="400" cy="400" stroke-width="4.5" stroke-dasharray="308 898" transform="rotate(123, 400, 400)" opacity="0.67"></circle><circle r="132" cx="400" cy="400" stroke-width="4.5" stroke-dasharray="261 829" transform="rotate(113, 400, 400)" opacity="0.70"></circle><circle r="121" cx="400" cy="400" stroke-width="4.5" stroke-dasharray="217 760" transform="rotate(103, 400, 400)" opacity="0.73"></circle><circle r="110" cx="400" cy="400" stroke-width="4.5" stroke-dasharray="178 691" transform="rotate(93, 400, 400)" opacity="0.76"></circle><circle r="99" cx="400" cy="400" stroke-width="4.5" stroke-dasharray="142 622" transform="rotate(82, 400, 400)" opacity="0.78"></circle><circle r="88" cx="400" cy="400" stroke-width="4.5" stroke-dasharray="111 553" transform="rotate(72, 400, 400)" opacity="0.81"></circle><circle r="77" cx="400" cy="400" stroke-width="4.5" stroke-dasharray="83 484" transform="rotate(62, 400, 400)" opacity="0.84"></circle><circle r="66" cx="400" cy="400" stroke-width="4.5" stroke-dasharray="59 415" transform="rotate(51, 400, 400)" opacity="0.86"></circle><circle r="55" cx="400" cy="400" stroke-width="4.5" stroke-dasharray="39 346" transform="rotate(41, 400, 400)" opacity="0.89"></circle><circle r="44" cx="400" cy="400" stroke-width="4.5" stroke-dasharray="24 276" transform="rotate(31, 400, 400)" opacity="0.92"></circle><circle r="33" cx="400" cy="400" stroke-width="4.5" stroke-dasharray="12 207" transform="rotate(21, 400, 400)" opacity="0.95"></circle><circle r="22" cx="400" cy="400" stroke-width="4.5" stroke-dasharray="4 138" transform="rotate(10, 400, 400)" opacity="0.97"></circle><circle r="11" cx="400" cy="400" stroke-width="4.5" stroke-dasharray="0 69" opacity="1.00"></circle></g></svg>